# xmcd CD database file
#
# Track frame offsets:
#	150
#	15467
#	29945
#	43762
#
# Disc length: 843 seconds
#
# Revision: 0
# Processed by: cddbd v1.5.1PL0 Copyright (c) Steve Scherf et al.
# Submitted via: CDex 1.51
#
DISCID=2f034904
DTITLE=Fire Ball - キットヒット 〜踊るカルマン〜
DYEAR=2005
DGENRE=Reggae
TTITLE0=キットヒット 〜踊るカルマン〜
TTITLE1=MISSION NO.9 〜キヲツケロ〜
TTITLE2=キットヒット 〜踊るカルマン〜 Instrumental
TTITLE3=MISSION NO.9 〜キヲツケロ〜 Instrumental
EXTD=YEAR: 2005
EXTT0=
EXTT1=
EXTT2=
EXTT3=
PLAYORDER=
